<?xml version="1.0" encoding="iso-8859-1"?>
<!-- Uploaded to: SVG Repo, www.svgrepo.com, Generator: SVG Repo Mixer Tools -->
<svg version="1.1" id="Layer_1" xmlns="http://www.w3.org/2000/svg" xmlns:xlink="http://www.w3.org/1999/xlink" 
	 viewBox="0 0 508 508" xml:space="preserve">
<polygon style="fill:#D6B34C;" points="502,250 502,226 6,226 6,454 30,454 30,250 "/>
<g>
	<rect x="314" y="386" style="fill:#E8BB85;" width="188" height="68"/>
	<rect x="314" y="318" style="fill:#E8BB85;" width="188" height="68"/>
	<rect x="314" y="250" style="fill:#E8BB85;" width="188" height="68"/>
</g>
<path style="fill:#F4EFEF;" d="M223.2,202h28c8.8,0,14.8-11.2,14.8-20V70c0-8.8-6-12-14.8-12h-184C58.4,58,50,61.2,50,70v112
	c0,8.8,8.4,20,17.2,20h28H223.2z"/>
<path style="fill:#E8E3E3;" d="M50,178v4c0,8.8,8.4,20,17.2,20h28h128h28c8.8,0,14.8-11.2,14.8-20v-4H50z"/>
<path style="fill:#61C2AB;" d="M142,330h-30.8c-8.8,0-17.2-11.2-17.2-20V174c0-8.8,8.4-12,17.2-12h96c8.8,0,14.8,3.2,14.8,12v136
	c0,8.8-6,20-14.8,20H174"/>
<path style="fill:#4BB19B;" d="M170,350h37.2c8.8,0,16,7.2,16,16l0,0c0,8.8-7.2,16-16,16h-96c-8.8,0-16-7.2-16-16l0,0
	c0-8.8,7.2-16,16-16H146"/>
<path style="fill:#7D8B95;" d="M158,258c-6.8,0-12,5.2-12,12v96h24v-96C170,263.2,164.8,258,158,258z"/>
<rect x="150" y="382" style="fill:#676767;" width="16" height="56"/>
<g>
	<circle style="fill:#10927A;" cx="107.2" cy="442" r="8"/>
	<circle style="fill:#10927A;" cx="215.2" cy="442" r="8"/>
</g>
<polygon style="fill:#AEB1B4;" points="427.2,138 458,138 458,226 314,226 314,138 347.2,138 "/>
<g>
	<rect x="346" y="106" style="fill:#F4EFEF;" width="80" height="48"/>
	<rect x="346" y="186" style="fill:#F4EFEF;" width="80" height="24"/>
</g>
<path d="M504,252H222c-2.4,0-4-1.6-4-4s1.6-4,4-4h278v-16H222c-2.4,0-4-1.6-4-4s1.6-4,4-4h282c2.4,0,4,1.6,4,4v24
	C508,250.4,506.4,252,504,252z"/>
<path d="M28,456H4c-2.4,0-4-1.6-4-4V224c0-2.4,1.6-4,4-4h86c2.4,0,4,1.6,4,4s-1.6,4-4,4H8v220h16V248c0-2.4,1.6-4,4-4h62
	c2.4,0,4,1.6,4,4s-1.6,4-4,4H32v200C32,454.4,30.4,456,28,456z"/>
<path d="M486,316H314c-2.4,0-4-1.6-4-4s1.6-4,4-4h172c2.4,0,4,1.6,4,4S488.4,316,486,316z"/>
<path d="M434,352h-48c-2.4,0-4-1.6-4-4s1.6-4,4-4h48c2.4,0,4,1.6,4,4S436.4,352,434,352z"/>
<path d="M434,284h-48c-2.4,0-4-1.6-4-4s1.6-4,4-4h48c2.4,0,4,1.6,4,4S436.4,284,434,284z"/>
<path d="M434,424h-48c-2.4,0-4-1.6-4-4s1.6-4,4-4h48c2.4,0,4,1.6,4,4S436.4,424,434,424z"/>
<path d="M486,388H314c-2.4,0-4-1.6-4-4s1.6-4,4-4h172c2.4,0,4,1.6,4,4S488.4,388,486,388z"/>
<path d="M504,456H312c-2.4,0-4-1.6-4-4V248c0-2.4,1.6-4,4-4h192c2.4,0,4,1.6,4,4v204C508,454.4,506.4,456,504,456z M316,448h184V252
	H316V448z"/>
<path d="M251.2,204H222c-2.4,0-4-1.6-4-4s1.6-4,4-4h29.2c6,0,8.8-9.6,8.8-16V68c0-6.4-2-8-8.8-8h-184C61.6,60,52,61.6,52,68v112
	c0,6.8,8.8,16,15.2,16H90c2.4,0,4,1.6,4,4s-1.6,4-4,4H67.2C56.4,204,44,191.2,44,180V68c0-11.2,11.6-16,23.2-16h184
	c11.2,0,16.8,5.2,16.8,16v112C268,191.6,262,204,251.2,204z"/>
<path d="M90,180H50c-2.4,0-4-1.6-4-4s1.6-4,4-4h40c2.4,0,4,1.6,4,4S92.4,180,90,180z"/>
<path d="M262,180h-40c-2.4,0-4-1.6-4-4s1.6-4,4-4h40c2.4,0,4,1.6,4,4S264.4,180,262,180z"/>
<path d="M456,228H312c-2.4,0-4-1.6-4-4v-88c0-2.4,1.6-4,4-4h30c2.4,0,4,1.6,4,4s-1.6,4-4,4h-26v80h136v-80h-26c-2.4,0-4-1.6-4-4
	s1.6-4,4-4h30c2.4,0,4,1.6,4,4v88C460,226.4,458.4,228,456,228z"/>
<path d="M424,156h-80c-2.4,0-4-1.6-4-4v-48c0-2.4,1.6-4,4-4h80c2.4,0,4,1.6,4,4v48C428,154.4,426.4,156,424,156z M348,148h72v-40
	h-72V148z"/>
<path d="M424,212h-80c-2.4,0-4-1.6-4-4v-24c0-2.4,1.6-4,4-4h80c2.4,0,4,1.6,4,4v24C428,210.4,426.4,212,424,212z M348,204h72v-16
	h-72V204z"/>
<path d="M427.2,168c-1.2,0-2-0.4-2.8-1.2c-0.8-0.8-1.2-1.6-1.2-2.8c0-1.2,0.4-2,1.2-2.8c1.6-1.6,4-1.6,5.6,0
	c0.8,0.8,1.2,1.6,1.2,2.8c0,1.2-0.4,2-1.2,2.8C429.2,167.6,428,168,427.2,168z"/>
<path d="M414,172h-16c-2.4,0-4-1.6-4-4s1.6-4,4-4h16c2.4,0,4,1.6,4,4S416.4,172,414,172z"/>
<path d="M208.8,334h-37.2c-2.4,0-4-1.6-4-4s1.6-4,4-4h37.2c6,0,8.8-9.6,8.8-16V174c0-6.4-2-8-8.8-8h-99.6c-6.8,0-11.2,4-11.2,10.4
	V310c0,7.2,4.8,16,10.8,16H144c2.4,0,4,1.6,4,4s-1.6,4-4,4h-35.2C97.6,334,90,321.2,90,310V176.4c0-10.8,8-18.4,19.2-18.4h99.6
	c11.2,0,16.8,5.2,16.8,16v136C225.6,321.6,219.6,334,208.8,334z"/>
<path d="M208.8,386h-96c-11.2,0-20-8.8-20-20s8.8-20,20-20h30.8c2.4,0,4,1.6,4,4s-1.6,4-4,4h-30.8c-6.8,0-12,5.2-12,12s5.2,12,12,12
	h96c6.8,0,12-5.2,12-12s-5.2-12-12-12h-37.2c-2.4,0-4-1.6-4-4s1.6-4,4-4h37.2c11.2,0,20,8.8,20,20S219.6,386,208.8,386z"/>
<path d="M169.6,370h-24c-2.4,0-4-1.6-4-4v-96c0-8.8,7.2-16,16-16s16,7.2,16,16v96C173.6,368.4,171.6,370,169.6,370z M149.6,362h16
	v-92c0-4.4-3.6-8-8-8s-8,3.6-8,8V362z"/>
<path d="M165.6,442h-16c-2.4,0-4-1.6-4-4v-54c0-2.4,1.6-4,4-4s4,1.6,4,4v50h8v-50c0-2.4,1.6-4,4-4s4,1.6,4,4v54
	C169.6,440.4,167.6,442,165.6,442z"/>
<path d="M207.6,442h-92c-2.4,0-4-1.6-4-4s1.6-4,4-4h92c2.4,0,4,1.6,4,4S209.6,442,207.6,442z"/>
<path d="M108.8,454c-6.8,0-12-5.2-12-12s5.2-12,12-12s12,5.2,12,12S115.2,454,108.8,454z M108.8,438c-2.4,0-4,1.6-4,4s1.6,4,4,4
	s4-1.6,4-4S110.8,438,108.8,438z"/>
<path d="M216.8,454c-6.8,0-12-5.2-12-12s5.2-12,12-12s12,5.2,12,12S223.2,454,216.8,454z M216.8,438c-2.4,0-4,1.6-4,4s1.6,4,4,4
	s4-1.6,4-4S218.8,438,216.8,438z"/>
</svg>