<svg xmlns="http://www.w3.org/2000/svg" xmlns:xlink="http://www.w3.org/1999/xlink" width="500" zoomAndPan="magnify" viewBox="0 0 375 374.999991" height="500" preserveAspectRatio="xMidYMid meet" version="1.0"><defs><g/><clipPath id="df349929df"><rect x="0" width="91" y="0" height="150"/></clipPath><clipPath id="b26d205c1d"><rect x="0" width="50" y="0" height="150"/></clipPath><clipPath id="68fbc19746"><rect x="0" width="132" y="0" height="172"/></clipPath><clipPath id="fd2186368c"><rect x="0" width="50" y="0" height="172"/></clipPath><clipPath id="c80c8b2bb5"><path d="M 120.296875 127.871094 L 166.601562 127.871094 L 166.601562 334.792969 L 120.296875 334.792969 Z M 120.296875 127.871094 " clip-rule="nonzero"/></clipPath><clipPath id="a36399a293"><path d="M 143.449219 127.871094 C 156.238281 127.871094 166.601562 138.238281 166.601562 151.023438 L 166.601562 311.554688 C 166.601562 324.339844 156.238281 334.707031 143.449219 334.707031 C 130.664062 334.707031 120.296875 324.339844 120.296875 311.554688 L 120.296875 151.023438 C 120.296875 138.238281 130.664062 127.871094 143.449219 127.871094 Z M 143.449219 127.871094 " clip-rule="nonzero"/></clipPath><clipPath id="18c5b35e52"><path d="M 0.296875 0.871094 L 46.601562 0.871094 L 46.601562 207.792969 L 0.296875 207.792969 Z M 0.296875 0.871094 " clip-rule="nonzero"/></clipPath><clipPath id="fa621f2b40"><path d="M 23.449219 0.871094 C 36.238281 0.871094 46.601562 11.238281 46.601562 24.023438 L 46.601562 184.554688 C 46.601562 197.339844 36.238281 207.707031 23.449219 207.707031 C 10.664062 207.707031 0.296875 197.339844 0.296875 184.554688 L 0.296875 24.023438 C 0.296875 11.238281 10.664062 0.871094 23.449219 0.871094 Z M 23.449219 0.871094 " clip-rule="nonzero"/></clipPath><clipPath id="2ede3405e5"><rect x="0" width="47" y="0" height="208"/></clipPath><clipPath id="a9aada474e"><path d="M 120.296875 127.875 L 166.742188 127.875 L 166.742188 334.871094 L 120.296875 334.871094 Z M 120.296875 127.875 " clip-rule="nonzero"/></clipPath><clipPath id="5a0b9e18c2"><path d="M 143.449219 127.875 C 156.234375 127.875 166.597656 138.238281 166.597656 151.023438 L 166.597656 311.542969 C 166.597656 324.328125 156.234375 334.691406 143.449219 334.691406 C 130.664062 334.691406 120.296875 324.328125 120.296875 311.542969 L 120.296875 151.023438 C 120.296875 138.238281 130.664062 127.875 143.449219 127.875 Z M 143.449219 127.875 " clip-rule="nonzero"/></clipPath><clipPath id="7998fab9a2"><rect x="0" width="51" y="0" height="150"/></clipPath><clipPath id="c99128d6ae"><rect x="0" width="50" y="0" height="150"/></clipPath><clipPath id="592dbc420a"><rect x="0" width="77" y="0" height="150"/></clipPath><clipPath id="24b47cc67a"><rect x="0" width="52" y="0" height="150"/></clipPath></defs><g transform="matrix(1, 0, 0, 1, 173, 103)"><g clip-path="url(#df349929df)"><g fill="#191919" fill-opacity="1"><g transform="translate(0.83283, 114.456619)"><g><path d="M 3.84375 -86.734375 L 30.5 -86.734375 C 34.738281 -86.734375 38.019531 -85.773438 40.34375 -83.859375 C 42.664062 -81.941406 44.226562 -79.25 45.03125 -75.78125 C 45.84375 -72.3125 46.25 -67.882812 46.25 -62.5 C 46.25 -57.582031 45.609375 -53.742188 44.328125 -50.984375 C 43.046875 -48.222656 40.820312 -46.304688 37.65625 -45.234375 C 40.28125 -44.691406 42.179688 -43.378906 43.359375 -41.296875 C 44.546875 -39.210938 45.140625 -36.382812 45.140625 -32.8125 L 44.9375 0 L 27.96875 0 L 27.96875 -33.921875 C 27.96875 -36.347656 27.492188 -37.894531 26.546875 -38.5625 C 25.609375 -39.238281 23.894531 -39.578125 21.40625 -39.578125 L 21.40625 0 L 3.84375 0 Z M 25.640625 -54.625 C 28.066406 -54.625 29.28125 -57.25 29.28125 -62.5 C 29.28125 -64.789062 29.175781 -66.503906 28.96875 -67.640625 C 28.769531 -68.785156 28.398438 -69.578125 27.859375 -70.015625 C 27.328125 -70.453125 26.554688 -70.671875 25.546875 -70.671875 L 21.5 -70.671875 L 21.5 -54.625 Z M 25.640625 -54.625 "/></g></g></g><g fill="#191919" fill-opacity="1"><g transform="translate(48.989514, 114.456619)"><g><path d="M 11.3125 0 L 11.3125 -70.078125 L 1.015625 -70.078125 L 1.015625 -86.734375 L 38.96875 -86.734375 L 38.96875 -70.078125 L 28.671875 -70.078125 L 28.671875 0 Z M 11.3125 0 "/></g></g></g></g></g><g transform="matrix(1, 0, 0, 1, 67, 103)"><g clip-path="url(#b26d205c1d)"><g fill="#191919" fill-opacity="1"><g transform="translate(0.627304, 114.456619)"><g><path d="M 3.84375 -86.734375 L 26.75 -86.734375 C 33.6875 -86.734375 38.632812 -84.492188 41.59375 -80.015625 C 44.5625 -75.535156 46.046875 -68.988281 46.046875 -60.375 C 46.046875 -51.757812 44.734375 -45.265625 42.109375 -40.890625 C 39.484375 -36.515625 34.769531 -34.328125 27.96875 -34.328125 L 20.90625 -34.328125 L 20.90625 0 L 3.84375 0 Z M 21.90625 -49.984375 C 24 -49.984375 25.53125 -50.367188 26.5 -51.140625 C 27.476562 -51.910156 28.117188 -53.019531 28.421875 -54.46875 C 28.722656 -55.914062 28.875 -57.988281 28.875 -60.6875 C 28.875 -64.320312 28.46875 -66.945312 27.65625 -68.5625 C 26.851562 -70.175781 25.238281 -70.984375 22.8125 -70.984375 L 20.90625 -70.984375 L 20.90625 -49.984375 Z M 21.90625 -49.984375 "/></g></g></g></g></g><g transform="matrix(1, 0, 0, 1, 174, 199)"><g clip-path="url(#68fbc19746)"><g fill="#191919" fill-opacity="1"><g transform="translate(0.664557, 132.134872)"><g><path d="M 4.453125 0 L 4.453125 -100.703125 L 24.625 -100.703125 L 24.625 -17.109375 L 45.375 -17.109375 L 45.375 0 Z M 4.453125 0 "/></g></g></g><g fill="#191919" fill-opacity="1"><g transform="translate(47.20473, 132.134872)"><g><path d="M 3.515625 0 L 3.515625 -100.703125 L 22.984375 -100.703125 L 22.984375 0 Z M 3.515625 0 "/></g></g></g><g fill="#191919" fill-opacity="1"><g transform="translate(73.815862, 132.134872)"><g><path d="M 28.484375 0.9375 C 20.359375 0.9375 14.1875 -1.539062 9.96875 -6.5 C 5.75 -11.46875 3.640625 -18.445312 3.640625 -27.4375 L 3.640625 -75.375 C 3.640625 -84.050781 5.75 -90.597656 9.96875 -95.015625 C 14.1875 -99.429688 20.359375 -101.640625 28.484375 -101.640625 C 36.617188 -101.640625 42.796875 -99.429688 47.015625 -95.015625 C 51.234375 -90.597656 53.34375 -84.050781 53.34375 -75.375 L 53.34375 -27.4375 C 53.34375 -18.363281 51.234375 -11.363281 47.015625 -6.4375 C 42.796875 -1.519531 36.617188 0.9375 28.484375 0.9375 Z M 28.484375 -17.578125 C 30.285156 -17.578125 31.5 -18.359375 32.125 -19.921875 C 32.75 -21.492188 33.0625 -23.6875 33.0625 -26.5 L 33.0625 -75.734375 C 33.0625 -77.921875 32.765625 -79.695312 32.171875 -81.0625 C 31.585938 -82.4375 30.398438 -83.125 28.609375 -83.125 C 25.242188 -83.125 23.5625 -80.582031 23.5625 -75.5 L 23.5625 -26.375 C 23.5625 -23.488281 23.910156 -21.300781 24.609375 -19.8125 C 25.316406 -18.320312 26.609375 -17.578125 28.484375 -17.578125 Z M 28.484375 -17.578125 "/></g></g></g></g></g><g transform="matrix(1, 0, 0, 1, 65, 199)"><g clip-path="url(#fd2186368c)"><g fill="#191919" fill-opacity="1"><g transform="translate(1.658949, 132.134872)"><g><path d="M 4.453125 0 L 4.453125 -100.703125 L 44.78125 -100.703125 L 44.78125 -81.125 L 24.734375 -81.125 L 24.734375 -65.0625 L 43.734375 -65.0625 L 43.734375 -45.71875 L 24.734375 -45.71875 L 24.734375 0 Z M 4.453125 0 "/></g></g></g></g></g><g clip-path="url(#c80c8b2bb5)"><g clip-path="url(#a36399a293)"><g transform="matrix(1, 0, 0, 1, 120, 127)"><g clip-path="url(#2ede3405e5)"><g clip-path="url(#18c5b35e52)"><g clip-path="url(#fa621f2b40)"><path fill="#ffffff" d="M 0.296875 0.871094 L 46.601562 0.871094 L 46.601562 207.792969 L 0.296875 207.792969 Z M 0.296875 0.871094 " fill-opacity="1" fill-rule="nonzero"/></g></g></g></g></g></g><g clip-path="url(#a9aada474e)"><g clip-path="url(#5a0b9e18c2)"><path stroke-linecap="butt" transform="matrix(0.75, 0, 0, 0.75, 120.297726, 127.874917)" fill="none" stroke-linejoin="miter" d="M 30.868659 0.000110396 C 47.915535 0.000110396 61.733244 13.81782 61.733244 30.864696 L 61.733244 244.890751 C 61.733244 261.937628 47.915535 275.755337 30.868659 275.755337 C 13.821783 275.755337 -0.00113493 261.937628 -0.00113493 244.890751 L -0.00113493 30.864696 C -0.00113493 13.81782 13.821783 0.000110396 30.868659 0.000110396 Z M 30.868659 0.000110396 " stroke="#ffcc00" stroke-width="22" stroke-opacity="1" stroke-miterlimit="4"/></g></g><g transform="matrix(1, 0, 0, 1, 67, 4)"><g clip-path="url(#7998fab9a2)"><g fill="#191919" fill-opacity="1"><g transform="translate(0.627304, 114.809067)"><g><path d="M 3.84375 0 L 3.84375 -86.734375 L 21 -86.734375 L 21 -52 L 29.078125 -86.734375 L 46.546875 -86.734375 L 36.859375 -47.046875 L 48.5625 0 L 30.59375 0 L 21.109375 -42 L 21.109375 0 Z M 3.84375 0 "/></g></g></g></g></g><g transform="matrix(1, 0, 0, 1, 119, 4)"><g clip-path="url(#c99128d6ae)"><g fill="#191919" fill-opacity="1"><g transform="translate(0.7788, 114.809067)"><g><path d="M 23.921875 0.8125 C 16.796875 0.8125 11.5 -1.207031 8.03125 -5.25 C 4.5625 -9.289062 2.828125 -15.28125 2.828125 -23.21875 L 2.828125 -86.734375 L 19.6875 -86.734375 L 19.6875 -23.921875 C 19.6875 -21.171875 19.953125 -19.019531 20.484375 -17.46875 C 21.023438 -15.914062 22.171875 -15.140625 23.921875 -15.140625 C 25.679688 -15.140625 26.828125 -15.894531 27.359375 -17.40625 C 27.898438 -18.925781 28.171875 -21.097656 28.171875 -23.921875 L 28.171875 -86.734375 L 45.03125 -86.734375 L 45.03125 -23.21875 C 45.03125 -15.28125 43.296875 -9.289062 39.828125 -5.25 C 36.359375 -1.207031 31.054688 0.8125 23.921875 0.8125 Z M 23.921875 0.8125 "/></g></g></g></g></g><g transform="matrix(1, 0, 0, 1, 172, 4)"><g clip-path="url(#592dbc420a)"><g fill="#191919" fill-opacity="1"><g transform="translate(0.383662, 114.809067)"><g><path d="M 3.84375 0 L 3.84375 -86.734375 L 30.296875 -86.734375 L 37.5625 -33.828125 L 44.828125 -86.734375 L 71.484375 -86.734375 L 71.484375 0 L 55.640625 0 L 55.640625 -62.5 L 45.640625 0 L 30.09375 0 L 19.484375 -62.5 L 19.484375 0 Z M 3.84375 0 "/></g></g></g></g></g><g transform="matrix(1, 0, 0, 1, 250, 4)"><g clip-path="url(#24b47cc67a)"><g fill="#191919" fill-opacity="1"><g transform="translate(2.299297, 114.809067)"><g><path d="M 1.515625 0 L 9.890625 -86.734375 L 39.28125 -86.734375 L 47.5625 0 L 31.09375 0 L 29.890625 -14.03125 L 19.390625 -14.03125 L 18.375 0 Z M 20.703125 -27.875 L 28.578125 -27.875 L 24.734375 -71.984375 L 23.921875 -71.984375 Z M 20.703125 -27.875 "/></g></g></g></g></g></svg>