<?xml version="1.0" encoding="utf-8"?>
<!-- Generator: Adobe Illustrator 21.0.0, SVG Export Plug-In . SVG Version: 6.00 Build 0)  -->
<svg version="1.1" id="Layer_1" xmlns="http://www.w3.org/2000/svg" xmlns:xlink="http://www.w3.org/1999/xlink" x="0px" y="0px"
	 viewBox="0 0 132.5 132.5" style="enable-background:new 0 0 132.5 132.5;" xml:space="preserve">
<style type="text/css">
	.st0{fill:#0B4697;}
	.st1{fill:#FFFFFF;}
</style>
<circle class="st0" cx="66.3" cy="66.3" r="65.1"/>
<g>
	<path class="st1" d="M105.2,76.9L105.2,76.9L86.5,62.6l1.7,9.9l12.8,9.9c2.4,1.8,3.1,5.2,1.5,7.8c-1.5,2.5-4.6,3.6-7.4,2.5l0,0
		c0,0,0,0-0.1,0l-15.2-6.3c-1.1,0.7-2.2,1.4-3.5,2l-4.9,2.1l20.9,8.6c1.5,0.7,3.2,1,4.9,1c1.4,0,2.8-0.3,4.2-0.7
		c2.9-1,5.4-3.1,7-5.7c1.5-2.6,2.1-5.9,1.5-8.9C109.4,81.5,107.7,78.8,105.2,76.9z"/>
	<path class="st1" d="M83.7,67.2L79,31.5l0,0c-0.4-3.1-2-5.9-4.2-7.9c-2.4-2.1-5.3-3.2-8.4-3.2c-3.1,0-6.1,1.1-8.4,3.2
		c-2.4,2.1-3.9,4.9-4.2,7.9l0,0l-3.8,28.2L27.4,76.9l0,0c-2.5,2-4.2,4.6-4.7,7.7c-0.6,3.1-0.1,6.1,1.5,8.9c1.5,2.6,4,4.7,7,5.7
		c1.4,0.4,2.8,0.7,4.2,0.7c1.7,0,3.3-0.3,4.9-1l33.3-13.8C80.5,82.1,84.7,74.9,83.7,67.2z M60.3,32.3c0.4-2.9,3.1-5.2,6-5.2
		c2.9,0,5.6,2.2,6,5.2l0,0l2.9,21.5c-5.4-3.3-12.3-3.3-17.6,0L60.3,32.3z M37.4,92.6c-2.8,1.1-6,0-7.5-2.5c-1.5-2.6-0.8-5.9,1.5-7.8
		l28.6-22c3.6-2.8,8.8-2.8,12.4,0l3.9,2.9L77,68c0.6,4.6-2,9.1-6.3,10.7l-4.5,2l-4.5-1.8c-3.9-1.7-6.4-5.4-6.3-9.6L49.3,74
		c1.3,4.3,4.2,8.1,8.2,10.3L37.4,92.6z"/>
</g>
</svg>
